# xmcd CD database file
#
# Track frame offsets:
#	150
#	23623
#	47923
#	91433
#	113115
#	135653
#	157923
#	178330
#	197330
#
# Disc length: 2799 seconds
#
# Revision: 0
# Processed by: cddbd v1.5.2PL0 Copyright (c) Steve Scherf et al.
# Submitted via: CDex 1.51
#
DISCID=6e0aed09
DTITLE=Itai Haber - Wings of Stone
DYEAR=1994
DGENRE=New Age
TTITLE0=Let It Go
TTITLE1=Wings of Stone
TTITLE2=Psyche Loops
TTITLE3=Imagex
TTITLE4=Shysh
TTITLE5=Digital Garden
TTITLE6=New Life
TTITLE7=Dalia's Colors
TTITLE8=Shysh Reprise
EXTD=YEAR: 1994
EXTT0=
EXTT1=
EXTT2=
EXTT3=
EXTT4=
EXTT5=
EXTT6=
EXTT7=
EXTT8=
PLAYORDER=
